<?xml version="1.0" encoding="UTF-8" standalone="no"?>
<svg
   data-name="Layer 1"
   id="Layer_1"
   viewBox="0 0 64 64"
   version="1.1"
   sodipodi:docname="icon.svg"
   inkscape:version="1.2.2 (b0a8486541, 2022-12-01)"
   xmlns:inkscape="http://www.inkscape.org/namespaces/inkscape"
   xmlns:sodipodi="http://sodipodi.sourceforge.net/DTD/sodipodi-0.dtd"
   xmlns="http://www.w3.org/2000/svg"
   xmlns:svg="http://www.w3.org/2000/svg">
  <defs
     id="defs13311" />
  <sodipodi:namedview
     id="namedview13309"
     pagecolor="#ffffff"
     bordercolor="#000000"
     borderopacity="0.25"
     inkscape:showpageshadow="2"
     inkscape:pageopacity="0.0"
     inkscape:pagecheckerboard="0"
     inkscape:deskcolor="#d1d1d1"
     showgrid="false"
     inkscape:zoom="9.0367226"
     inkscape:cx="22.021258"
     inkscape:cy="13.777119"
     inkscape:window-width="1870"
     inkscape:window-height="1131"
     inkscape:window-x="50"
     inkscape:window-y="32"
     inkscape:window-maximized="1"
     inkscape:current-layer="Layer_1" />
  <title
     id="title13294" />
  <desc
     id="desc13296" />
  <path
     d="M38.19,27H25.93a1,1,0,0,1-.83-1.56l6.13-9.19a1,1,0,0,1,1.66,0L39,25.46A1,1,0,0,1,38.19,27Z"
     style="fill:#cff09e"
     id="path13298" />
  <path
     d="M35.83,27H28.3L17.65,38.33A1,1,0,0,0,18.38,40H45.75a1,1,0,0,0,.73-1.69Z"
     style="fill:#a8dba8"
     id="path13300" />
  <path
     d="M39.94,40H24.19L12.51,53.36A1,1,0,0,0,13.27,55H50.86a1,1,0,0,0,.75-1.66Z"
     style="fill:#79bd9a"
     id="path13302" />
  <rect
     height="6"
     style="fill:#a8dba8"
     width="8"
     x="28.06"
     y="55.02"
     id="rect13304" />
  <path
     id="path13306"
     style="fill:#3b8686"
     d="M 29.060547 56 L 35.060547 56 L 35.060547 60 L 29.060547 60 L 29.060547 56 z " />
  <path
     id="path13436"
     style="fill:#3b8686"
     d="M 44 46.230469 L 50.859375 54 L 13.269531 54 L 15.890625 51 C 16.660624 51.06 17.450001 51.110625 18.25 51.140625 L 18.089844 51.759766 A 1 1 0 0 0 18.820312 53 L 19.060547 53 A 1 1 0 0 0 20.060547 52.240234 L 20.330078 51.160156 C 21.790077 51.160156 23.280783 51.079453 24.800781 50.939453 L 25.119141 52.240234 A 1 1 0 0 0 26.119141 53 L 26.359375 53 A 1 1 0 0 0 27 51.779297 L 26.740234 50.779297 A 67.76 67.76 0 0 0 34.289062 49.380859 L 35.099609 51.380859 A 1 1 0 0 0 36.029297 52.009766 A 0.94 0.94 0 0 0 36.400391 51.939453 A 1 1 0 0 0 36.960938 50.640625 L 36.240234 48.830078 C 37.150233 48.580078 38.07047 48.309531 38.980469 48.019531 C 39.580468 47.829531 40.179532 47.629922 40.769531 47.419922 L 41.089844 48.330078 A 1 1 0 0 0 42.029297 49.009766 A 1 1 0 0 0 42.359375 48.949219 A 1 1 0 0 0 43 47.689453 L 42.679688 46.75 L 44 46.230469 z " />
  <path
     id="path13434"
     style="fill:#3b8686"
     d="M 31.099609 14.195312 L 31.099609 14.720703 L 24.269531 24.910156 A 2 2 0 0 0 25.929688 28 L 26 28 L 16.939453 37.630859 A 2 2 0 0 0 18.380859 41 L 22 41 L 14.740234 49.300781 L 11.740234 52.679688 A 2 2 0 0 0 11.419922 54.830078 A 2 2 0 0 0 13.269531 56 L 27.060547 56 L 27.060547 61 A 1 1 0 0 0 28.060547 62 L 36.060547 62 A 1 1 0 0 0 37.060547 61 L 37.060547 56 L 50.859375 56 A 2 2 0 0 0 52.359375 52.679688 L 52.359375 52.699219 L 42.140625 41 L 45.75 41 A 2 2 0 0 0 47.199219 37.630859 L 38.140625 28 A 2 2 0 0 0 40 27 A 2 2 0 0 0 39.900391 24.949219 L 33.099609 14.759766 L 33.099609 14.214844 L 31.099609 14.195312 z M 32.060547 16.820312 L 34.679688 20.75 A 12.85 12.85 0 0 1 29.439453 20.75 L 32.060547 16.820312 z M 28.259766 22.519531 A 13.87 13.87 0 0 0 31.060547 22.980469 L 31.060547 23.980469 A 1 1 0 0 0 33.060547 23.980469 L 33.060547 23 A 13.85 13.85 0 0 0 35.869141 22.539062 L 38.199219 26 L 25.929688 26 L 28.259766 22.519531 z M 28.730469 28 L 35.390625 28 L 38.650391 31.460938 C 37.780391 31.630937 36.889999 31.740078 36 31.830078 A 0.7 0.7 0 0 0 35.710938 31.830078 A 41.75 41.75 0 0 1 28.210938 31.830078 A 1 1 0 0 0 27.970703 31.830078 C 27.130704 31.750078 26.300468 31.64 25.480469 31.5 L 28.730469 28 z M 40.289062 33.199219 L 45.75 39 L 18.380859 39 L 23.839844 33.210938 C 24.659843 33.384271 25.490079 33.524193 26.330078 33.630859 L 25.800781 34.5 A 1 1 0 0 0 26.150391 35.880859 A 1.06 1.06 0 0 0 26.660156 36.019531 A 1 1 0 0 0 27.519531 35.529297 L 28.519531 33.869141 C 29.35953 33.939141 30.210313 33.989766 31.070312 34.009766 L 31.070312 35.009766 A 1 1 0 0 0 33.070312 35.009766 L 33.070312 34 C 33.870312 34 34.65922 33.940859 35.449219 33.880859 L 36.570312 35.560547 A 1.0029568 1.0029568 0 1 0 38.240234 34.449219 L 37.689453 33.640625 C 38.569452 33.520625 39.439063 33.369219 40.289062 33.199219 z M 25.589844 41.060547 L 39.480469 41.060547 L 42.089844 44 A 57.07 57.07 0 0 1 31.410156 42.619141 A 1.1 1.1 0 0 0 31.150391 42.560547 C 30.090392 42.320547 29.020936 42.050234 27.960938 41.740234 L 27.800781 41.740234 L 27.640625 41.689453 C 26.960626 41.489453 26.269843 41.280547 25.589844 41.060547 z M 23.480469 42.400391 C 24.190468 42.65039 24.889376 42.879375 25.609375 43.109375 L 24.400391 44.310547 A 1 1 0 0 0 24.400391 45.730469 A 1 1 0 0 0 25.109375 46.019531 A 1 1 0 0 0 25.820312 45.730469 L 27.820312 43.730469 C 28.590312 43.940469 29.370626 44.140078 30.140625 44.330078 L 30.140625 45 A 1 1 0 0 0 32.140625 45 L 32.140625 44.800781 A 59.48 59.48 0 0 0 39.339844 45.800781 L 38.490234 46.080078 C 37.210236 46.500078 36.000546 46.850157 34.810547 47.160156 L 34.539062 47.220703 A 64 64 0 0 1 25.619141 48.859375 A 0.87 0.87 0 0 0 25.300781 48.859375 A 52.33 52.33 0 0 1 19.769531 49.130859 A 1.15 1.15 0 0 0 19.400391 49.130859 L 17.589844 49.130859 L 23.480469 42.400391 z " />
  <path
     id="path13432"
     style="fill:#aa0000"
     d="m 31.099609,14.220533 2,0.01953 v -0.544922 l 2.060547,1.089844 a 1.12,1.12 0 0 0 0.470703,0.109375 1,1 0 0 0 1,-1.169922 L 36,10.314283 38.480469,7.9060799 a 1,1 0 0 0 0.25,-1 1,1 0 0 0 -0.810547,-0.691406 L 34.5,5.7244399 33,2.6052989 a 1,1 0 0 0 -1.800781,0 L 29.669922,5.7049079 26.25,6.1951429 a 1,1 0 0 0 -0.810547,0.689453 1,1 0 0 0 0.259766,1 l 2.470703,2.4101561 -0.580078,3.410157 a 1,1 0 0 0 0.40039,1 1,1 0 0 0 1.048828,0.08008 l 2.060547,-1.089844 z m 0.960938,-8.9453121 0.869141,1.75 a 1,1 0 0 0 0.75,0.550781 l 1.939453,0.279297 -1.398438,1.369141 a 1,1 0 0 0 -0.291015,0.8808591 l 0.330078,1.919922 -1.730469,-0.910156 h -0.06836 -0.111329 -0.480468 -0.109375 -0.06055 l -1.83984,0.910156 0.330078,-1.929688 A 1,1 0 0 0 29.910156,9.2556899 L 28.5,7.8845959 30.439453,7.6052989 a 1,1 0 0 0 0.759766,-0.580078 z" />
</svg>
