<?xml version="1.0" ?><svg data-name="Layer 1" id="Layer_1" viewBox="0 0 64 64" xmlns="http://www.w3.org/2000/svg"><title/><desc/><path d="M38.19,27H25.93a1,1,0,0,1-.83-1.56l6.13-9.19a1,1,0,0,1,1.66,0L39,25.46A1,1,0,0,1,38.19,27Z" style="fill:#cff09e"/><path d="M35.83,27H28.3L17.65,38.33A1,1,0,0,0,18.38,40H45.75a1,1,0,0,0,.73-1.69Z" style="fill:#a8dba8"/><path d="M39.94,40H24.19L12.51,53.36A1,1,0,0,0,13.27,55H50.86a1,1,0,0,0,.75-1.66Z" style="fill:#79bd9a"/><rect height="6" style="fill:#a8dba8" width="8" x="28.06" y="55.02"/><path d="M52.36,52.7,42.14,41h3.61a2,2,0,0,0,1.45-3.37L38.14,28h0A2,2,0,0,0,40,27a2,2,0,0,0-.1-2.05l-6.8-10.19V13.67l2.06,1.09a1.12,1.12,0,0,0,.47.11,1,1,0,0,0,1-1.17L36,10.29l2.48-2.41a1,1,0,0,0,.25-1,1,1,0,0,0-.81-.69l-3.42-.49L33,2.58a1,1,0,0,0-1.8,0l-1.53,3.1-3.42.49a1,1,0,0,0-.81.69,1,1,0,0,0,.26,1l2.47,2.41-.58,3.41a1,1,0,0,0,.4,1,1,1,0,0,0,1.05.08l2.06-1.09v1.05L24.27,24.91A2,2,0,0,0,25.93,28H26l-9.06,9.63A2,2,0,0,0,18.38,41H22l-7.26,8.3h0l-3,3.38a2,2,0,0,0-.32,2.15A2,2,0,0,0,13.27,56H27.06v5a1,1,0,0,0,1,1h8a1,1,0,0,0,1-1V56h13.8a2,2,0,0,0,1.5-3.32ZM34.81,47.16l-.27.06h0a64,64,0,0,1-8.92,1.64.87.87,0,0,0-.32,0h0a52.33,52.33,0,0,1-5.53.27,1.15,1.15,0,0,0-.37,0c-.61,0-1.21,0-1.81,0l5.89-6.73c.71.25,1.41.48,2.13.71l-1.21,1.2a1,1,0,0,0,0,1.42,1,1,0,0,0,.71.29,1,1,0,0,0,.71-.29l2-2c.77.21,1.55.41,2.32.6V45a1,1,0,0,0,2,0V44.8a59.48,59.48,0,0,0,7.2,1l-.85.28C37.21,46.5,36,46.85,34.81,47.16ZM42.09,44a57.07,57.07,0,0,1-10.68-1.38,1.1,1.1,0,0,0-.26-.06c-1.06-.24-2.13-.51-3.19-.82l-.16,0-.16-.05c-.68-.2-1.37-.41-2.05-.63H39.48ZM36,31.83a.7.7,0,0,0-.29,0,41.75,41.75,0,0,1-7.5,0,1,1,0,0,0-.24,0q-1.26-.12-2.49-.33L28.73,28h6.66l3.26,3.46C37.78,31.63,36.89,31.74,36,31.83ZM29.44,20.75l2.62-3.93,2.62,3.93A12.85,12.85,0,0,1,29.44,20.75Zm.47-11.52L28.5,7.86l1.94-.28A1,1,0,0,0,31.2,7l.86-1.75L32.93,7a1,1,0,0,0,.75.55l1.94.28-1.4,1.37a1,1,0,0,0-.29.88L34.26,12l-1.73-.91h0l0,0h-.07l-.11,0h-.48l-.11,0h-.06l0,0h0L29.86,12l.33-1.93A1,1,0,0,0,29.91,9.23ZM28.26,22.52a13.87,13.87,0,0,0,2.8.46v1a1,1,0,1,0,2,0V23a13.85,13.85,0,0,0,2.81-.46L38.2,26H25.93ZM23.84,33.21q1.23.26,2.49.42l-.53.87a1,1,0,0,0,.35,1.38,1.06,1.06,0,0,0,.51.14,1,1,0,0,0,.86-.49l1-1.66c.84.07,1.69.12,2.55.14v1a1,1,0,1,0,2,0V34c.8,0,1.59-.06,2.38-.12l1.12,1.68a1,1,0,1,0,1.67-1.11l-.55-.81c.88-.12,1.75-.27,2.6-.44L45.75,39H18.38ZM35.06,60h-6V56h6ZM13.27,54l2.62-3c.77.06,1.56.11,2.36.14l-.16.62A1,1,0,0,0,18.82,53l.24,0a1,1,0,0,0,1-.76l.27-1.08c1.46,0,2.95-.08,4.47-.22l.32,1.3a1,1,0,0,0,1,.76l.24,0A1,1,0,0,0,27,51.78l-.26-1a67.76,67.76,0,0,0,7.55-1.4l.81,2a1,1,0,0,0,.93.63.94.94,0,0,0,.37-.07,1,1,0,0,0,.56-1.3l-.72-1.81c.91-.25,1.83-.52,2.74-.81.6-.19,1.2-.39,1.79-.6l.32.91a1,1,0,0,0,.94.68,1,1,0,0,0,.33-.06A1,1,0,0,0,43,47.69l-.32-.94L44,46.23,50.86,54Z" style="fill:#3b8686"/></svg>